<svg width="375" height="271" viewBox="0 -600 1920 271" fill="none" xmlns="http://www.w3.org/2000/svg">
<path d="M0 4.40004L80.0417 19.8147C160.083 34.6532 320.167 66.3469 480.25 88.9647C640.333 112.447 800.417 126.853 960.5 104.235C1120.58 80.7532 1280.67 20.2469 1440.75 4.40004C1600.83 -11.4468 1760.92 20.2469 1840.96 35.0854L1921 50.5V281H1840.96C1760.92 281 1600.83 281 1440.75 281C1280.67 281 1120.58 281 960.5 281C800.417 281 640.333 281 480.25 281C320.167 281 160.083 281 80.0417 281H0V4.40004Z" fill="#606C38"/>
</svg>
