<svg width="1920" height="797" viewBox="0 0 1920 797" fill="none" xmlns="http://www.w3.org/2000/svg">
<path d="M9.29832e-06 0H1920V606H9.29832e-06V0Z" fill="#606C38"/>
<path d="M1920 792.6L1839.96 777.185C1759.92 762.347 1599.83 730.653 1439.75 708.035C1279.67 684.553 1119.58 670.147 959.5 692.765C799.417 716.247 639.333 776.753 479.25 792.6C319.167 808.447 159.083 776.753 79.0417 761.915L-0.99998 746.5L-1 516H79.0417C159.083 516 319.167 516 479.25 516C639.333 516 799.417 516 959.5 516C1119.58 516 1279.67 516 1439.75 516C1599.83 516 1759.92 516 1839.96 516H1920V792.6Z" fill="#606C38"/>
</svg>
